<?xml version="1.0" ?><!DOCTYPE svg  PUBLIC '-//W3C//DTD SVG 1.0//EN'  'http://www.w3.org/TR/2001/REC-SVG-20010904/DTD/svg10.dtd'><svg height="26" style="overflow:visible;enable-background:new 0 0 32 26" viewBox="0 0 32 26" width="32" xml:space="preserve" xmlns="http://www.w3.org/2000/svg" xmlns:xlink="http://www.w3.org/1999/xlink"><g><g id="Wall_paper_1_"><g id="Dog_x5F_Wallpaper"><polygon id="Paper_1_" points="32,15 32,0 0,0 0,26 21,26 " style="fill:#E6E6E6;"/><polygon id="Night_Scenery_1_" points="30,16 30,2 2,2 2,24 22,24 " style="fill:#7ACDDF;"/><polygon id="Shadow_2_" points="12,24 21,24 21,15 " style="fill:#51AED9;"/><path d="M15.3,5c-1.9,0-3.5,1.6-3.5,3.5H9.3c0,1.7,1.3,3,3,3h4.8        c1-0.6,1.7-1.7,1.7-3C18.8,6.6,17.2,5,15.3,5z" id="Facce" style="fill:#E6E6E6;"/><path d="M17.2,12h-4.5v7c-1.1,0-2,0.9-2,2h10.5v-1        C21.3,16.7,19.7,13.8,17.2,12z" id="Body" style="fill:#E6E6E6;"/><circle cx="9.5" cy="8.7" id="Nose" r="0.5" style="fill:#33485D;"/><rect height="1" id="Belt" style="fill:#34B67A;" width="4" x="12.8" y="11.5"/><path d="M14.8,8v2c0,1.7,1.3,3,3,3V8H14.8z" id="Ear" style="fill:#D1D3D4;"/><path d="M12.8,14c1.1,0,2,0.9,2,2s-0.9,2-2,2V14z" id="Dots_1_" style="fill:#33485D;"/><polygon id="Paper_Shadow_1_" points="12,24 10,26 21,26 21,24 " style="fill:#C9CACC;"/><polygon id="Fold_1_" points="32,15 21,15 21,26 " style="fill:#DCD7D3;"/><path d="M21,21l0-3.2c-0.2-0.7-0.4-1.4-0.7-2.1L15,21H21z" id="Shadow_1_" style="fill:#D1D3D4;"/><circle cx="18.3" cy="18" id="Dots" r="1" style="fill:#33485D;"/><path d="M18.3,19c0.6,0,1-0.4,1-1c0-0.3-0.2-0.6-0.5-0.8l-1.4,1.4        C17.6,18.8,17.9,19,18.3,19z" id="Shadow" style="fill:#25374B;"/></g></g></g></svg>